<?xml version="1.0" encoding="UTF-8"?>
<svg width="167px" height="167px" viewBox="0 0 167 167" version="1.1" xmlns="http://www.w3.org/2000/svg" xmlns:xlink="http://www.w3.org/1999/xlink">
    <title>Oval 2</title>
    <defs>
        <circle id="path-1" cx="74.5" cy="74.5" r="74.5"></circle>
    </defs>
    <g id="Identity" stroke="none" stroke-width="1" fill="none" fill-rule="evenodd">
        <g id="Oval-2" transform="translate(9.000000, 9.000000)">
            <mask id="mask-2" fill="white">
                <use xlink:href="#path-1"></use>
            </mask>
            <circle stroke="#FFFFFF" stroke-width="9" cx="74.5" cy="74.5" r="79"></circle>
            <polyline id="Path-4" stroke="#FFFFFF" stroke-width="9" mask="url(#mask-2)" points="53 23.7616127 74.7616127 2 96.5232254 23.7616127"></polyline>
            <polyline id="Path-4" stroke="#FFFFFF" stroke-width="9" mask="url(#mask-2)" transform="translate(136.761613, 74.880806) rotate(-270.000000) translate(-136.761613, -74.880806) " points="115 85.7616127 136.761613 64 158.523225 85.7616127"></polyline>
            <polyline id="Path-4" stroke="#FFFFFF" stroke-width="9" mask="url(#mask-2)" transform="translate(12.761613, 74.880806) rotate(-90.000000) translate(-12.761613, -74.880806) " points="-9 85.7616127 12.7616127 64 34.5232254 85.7616127"></polyline>
            <path d="M42.2220697,93.1327296 L75,125.911688 L98.0809616,102.830982 C106.11416,105.42216 113.548352,107.5 121.681699,107.5 C135.196305,107.5 144.635739,104 150,97 L143.621084,141.761022 L55.1254339,176.852546 L-1.37928216,125.911688 L6.51720859,110 C14.916593,99.9850594 26.8182134,94.3626359 42.2220697,93.1327296 Z" id="Combined-Shape" stroke="#FFFFFF" stroke-width="9" mask="url(#mask-2)"></path>
            <path d="M60.4651655,111.377149 L75,125.911688 L85.8508557,115.060446 C95.5731195,117.57496 103.238484,120.57431 112.787487,121.454066 C123.411529,122.432867 132.780785,121.515113 140.895252,118.700805 L136.447457,145.520177 L53.9198924,162.536978 L14,141.778959 L21.8964907,125.86727 C32.6027673,115.898993 45.4589922,111.068952 60.4651655,111.377149 Z" id="Combined-Shape" stroke="#FFFFFF" stroke-width="9" mask="url(#mask-2)"></path>
            <path d="M35.8964907,144.522044 C46.6592858,134.211573 56.3486927,129.056337 64.9647116,129.056337 C77.88874,129.056337 80.8439208,131.682485 98.5283186,134.863497 C110.317917,136.984172 119.445707,137.335142 125.911688,135.916407 L150.447457,164.174951 L67.9198924,181.191751 L28,160.433732 L35.8964907,144.522044 Z" id="Path-3" stroke="#FFFFFF" stroke-width="9" mask="url(#mask-2)"></path>
            <rect id="Rectangle" stroke="#FFFFFF" stroke-width="9" mask="url(#mask-2)" transform="translate(75.000000, 75.000000) rotate(-315.000000) translate(-75.000000, -75.000000) " x="39" y="39" width="72" height="72"></rect>
            <rect id="Rectangle" stroke="#FFFFFF" stroke-width="9" mask="url(#mask-2)" transform="translate(75.500000, 75.500000) rotate(-315.000000) translate(-75.500000, -75.500000) " x="62" y="62" width="27" height="27"></rect>
            <line x1="24" y1="75" x2="-1.0658141e-14" y2="75" id="Line-4" stroke="#FFFFFF" stroke-width="9" stroke-linecap="square" mask="url(#mask-2)"></line>
            <line x1="150" y1="75" x2="126" y2="75" id="Line-4" stroke="#FFFFFF" stroke-width="9" stroke-linecap="square" mask="url(#mask-2)"></line>
            <line x1="75" y1="24" x2="75" y2="0" id="Line-4" stroke="#FFFFFF" stroke-width="9" stroke-linecap="square" mask="url(#mask-2)"></line>
        </g>
    </g>
</svg>